<svg width="800" height="600" xmlns="http://www.w3.org/2000/svg">
 <!-- Created with Method Draw - http://github.com/duopixel/Method-Draw/ -->
 <g>
  <title>background</title>
  <rect fill="#fff" id="canvas_background" height="602" width="802" y="-1" x="-1"/>
  <g display="none" overflow="visible" y="0" x="0" height="100%" width="100%" id="canvasGrid">
   <rect fill="url(#gridpattern)" stroke-width="0" y="0" x="0" height="100%" width="100%"/>
  </g>
 </g>
 <g>
  <title>Layer 1</title>
  <path id="svg_1" d="m164.6775,263.34085l0,0c0,-77.59599 68.27658,-140.49999 152.5,-140.49999l0,0c40.4455,0 79.23448,14.80263 107.83376,41.15148c28.59931,26.34887 44.66624,62.08558 44.66624,99.3485l0,0c0,77.59598 -68.27658,140.49999 -152.5,140.49999l0,0c-84.2234,0 -152.5,-62.904 -152.5,-140.49999zm76.25,0l0,0c0,38.79799 34.13831,70.24999 76.25,70.24999c42.11172,0 76.25,-31.45201 76.25,-70.24999c0,-38.79799 -34.1383,-70.24999 -76.25,-70.24999l0,0c-42.11169,0 -76.25,31.45202 -76.25,70.24999z" stroke-width="1.5" stroke="#000" fill="#fff"/>
  <path id="svg_3" d="m167.5,242.45313" opacity="0.5" stroke-width="1.5" stroke="#000" fill="#fff"/>
  <path d="m170.5,223.45313c0,0 0,0 0,1c0,1 0.4588,1.69344 1,3c0.38269,0.92387 0.33749,2.31001 2,5c0.7435,1.203 1.4588,1.69344 2,3c0.76537,1.84776 1.2565,3.797 2,5c1.66251,2.68999 0.33749,4.31001 2,7c0.7435,1.203 2,3 2,4c0,1 0.29289,2.29289 1,3c0.70711,0.70711 2,2 2,3c0,1 2,3 2,4c0,1 0.61731,2.07611 1,3c1.0824,2.61313 3,2 4,2c1,0 2,0 3,0c1,0 2,0 3,0c1,0 2.1731,-0.85272 3,-2c1.30745,-1.814 0.29289,-3.29291 1,-4c0.70711,-0.70709 1,-1 1,-3c0,-2 0.9176,-2.38687 2,-5c0.38269,-0.92387 0.49345,-1.87856 1,-5c0.32036,-1.97418 2,-3 2,-4c0,-2 0.10341,-3.90633 1,-5c2.28587,-2.78833 2.4588,-3.69344 3,-5c0.38269,-0.92387 1.29289,-1.29289 2,-2c0.70711,-0.70711 0.61731,-1.07613 1,-2c0.5412,-1.30656 2.4588,-1.30656 3,0c0.38269,0.92387 2,2 2,3c0,1 -0.12234,3.06601 1,5c1.80972,3.11848 2,5 2,6c0,1 0,2 0,3c0,2 0,4 0,6c0,2 1,5 1,6c0,1 1,3 1,4c0,1 0.49345,1.87857 1,5c0.32036,1.97418 1,3 1,5c0,1 -0.4595,4.0535 0,6c0.51375,2.17624 1,3 1,4c0,3 0.61731,5.07611 1,6c0.5412,1.30655 1,3 1,4c0,1 0.33749,3.31 2,6c0.7435,1.203 0.61731,2.07611 1,3c0.5412,1.30655 0.33749,3.31 2,6c0.7435,1.203 0.69344,2.4588 2,3c0.92387,0.38269 2,0 3,0c1,0 2.48625,-0.82376 3,-3c0.22975,-0.97324 0.9176,-1.38687 2,-4c0.76537,-1.84775 1,-2 1,-3c0,-1 2,-2 2,-3l1,0l0,-2l1,-1" id="svg_6" fill-opacity="null" stroke-opacity="null" stroke-width="1.5" stroke="#000" fill="none"/>
  <path d="m389.5,246.45313c1,0 1.77023,1.02675 2,2c0.51373,2.17625 1,3 2,6c1,3 2.48627,5.82376 3,8c0.22977,0.97324 0.48627,1.82376 1,4c0.22977,0.97324 0.4588,2.69345 1,4c0.76538,1.84775 -0.30746,3.186 1,5c0.8269,1.14728 1.9176,1.38687 3,4c0.38269,0.92389 2.02676,1.22977 3,1c2.17624,-0.51373 3.29291,-2.29291 4,-3c0.70709,-0.70709 -0.05145,-2.29871 1,-4c1.17557,-1.9021 1.29291,-2.29291 2,-3c0.70709,-0.70709 1,-1 1,-2c0,-1 0,-2 0,-3c0,-1 0,-2 0,-3c0,-2 -0.38269,-3.07611 0,-4c0.5412,-1.30655 0.77023,-2.02676 1,-3c0.51373,-2.17625 2,-4 2,-5c0,-1 1,-2 1,-3c0,-2 1,-3 2,-4c1,-1 1.07611,-1.61731 2,-2c1.30655,-0.5412 2.29291,-1.29289 3,-2c0.70709,-0.70711 1,-1 2,-1c1,0 2,-1 3,-1c1,0 2,0 3,0c2,0 2,1 2,3c0,1 0,3 0,4c0,1 0,2 0,3c0,3 0,4 0,5c0,1 0,2 0,3c0,1 0,2 0,3c0,2 1,3 1,4c0,1 0,2 0,3c0,1 0,2 0,4c0,1 0,4 0,5c0,2 0,3 0,5c0,1 0,2 0,3c0,1 0,2 0,3c0,2 0,3 0,4c0,1 0,3 0,4c0,1 1,2 1,3c0,1 -0.30655,3.4588 1,4c0.92389,0.38269 3.07611,0.38269 4,0c1.30655,-0.5412 2,-1 3,-2c1,-1 2.48627,-1.82376 3,-4c0.4595,-1.9465 2.4588,-2.69345 3,-4c0.76538,-1.84775 0.61731,-3.07611 1,-4c0.5412,-1.30655 1,-2 2,-3c1,-1 1.4588,-2.69345 2,-4c0.38269,-0.92389 1.1731,-2.85272 2,-4c1.30746,-1.814 1,-3 1,-4c0,-1 0.61731,-1.07611 1,-2c0.5412,-1.30655 0.29291,-2.29291 1,-3c0.70709,-0.70709 1.29291,-0.29291 2,-1c0.70709,-0.70709 0.69345,-1.4588 2,-2c0.92389,-0.38269 2,0 3,0l1,1l0,1" id="svg_7" fill-opacity="null" stroke-opacity="null" stroke-width="1.5" stroke="#000" fill="none"/>
  <path d="m217.5,173.45313c0,1 1,5 3,9l0,1l2,4l1,2" id="svg_8" fill-opacity="null" stroke-opacity="null" stroke-width="1.5" stroke="#000" fill="none"/>
  <path d="m245.5,169.45313c1,0 1,1 1,3c0,2 0,4 0,7l0,1l0,1" id="svg_9" fill-opacity="null" stroke-opacity="null" stroke-width="1.5" stroke="#000" fill="none"/>
  <path d="m272.5,162.45313c1,1 1.9379,2.04735 5,6c3.92142,5.06187 8,10 12,14l1,1" id="svg_10" fill-opacity="null" stroke-opacity="null" stroke-width="1.5" stroke="#000" fill="none"/>
  <path d="m245.5,220.45313c-1,0 -2,2 -4,4l0,2l-2,2l0,1" id="svg_11" fill-opacity="null" stroke-opacity="null" stroke-width="1.5" stroke="#000" fill="none"/>
  <path d="m191.5,224.45313c1,0 1,1 2,2c2,2 3,3 3,4l0,1l1,1l1,1" id="svg_12" fill-opacity="null" stroke-opacity="null" stroke-width="1.5" stroke="#000" fill="none"/>
  <path d="m279.5,149.45313c2,0 3,0 5,0c5,0 11,0 18,0l2,-1l2,0" id="svg_13" fill-opacity="null" stroke-opacity="null" stroke-width="1.5" stroke="#000" fill="none"/>
  <path d="m336.5,143.45313c1,0 0.91751,1.0034 1,2c0.50171,6.06204 1,9 3,13l0,1l0,2l0,1" id="svg_14" fill-opacity="null" stroke-opacity="null" stroke-width="1.5" stroke="#000" fill="none"/>
  <path d="m323.5,179.45313c1,-1 2.07611,-1.38269 3,-1c1.30655,0.5412 1,2 2,3l0,1l1,2" id="svg_15" fill-opacity="null" stroke-opacity="null" stroke-width="1.5" stroke="#000" fill="none"/>
  <path d="m364.5,155.45313c0,2 1.14429,3.93414 2,6c1.21014,2.92157 1,4 1,5l0,1" id="svg_16" fill-opacity="null" stroke-opacity="null" stroke-width="1.5" stroke="#000" fill="none"/>
  <path d="m364.5,187.45313c-1,1 0,2 2,2c1,0 3,1 4,1l3,0l2,0l1,0" id="svg_17" fill-opacity="null" stroke-opacity="null" stroke-width="1.5" stroke="#000" fill="none"/>
  <path d="m393.5,155.45313c0,-1 1.9176,-1.61313 3,1c0.76538,1.84776 2,4 3,6l1,1l1,2" id="svg_18" fill-opacity="null" stroke-opacity="null" stroke-width="1.5" stroke="#000" fill="none"/>
  <path d="m418.5,188.45313c0,1 -1.18875,0.41528 -2,1c-2.56537,1.84901 -2,7 -4,10l0,2l0,2" id="svg_19" fill-opacity="null" stroke-opacity="null" stroke-width="1.5" stroke="#000" fill="none"/>
  <path d="m399.5,212.45313c0,1 0,2 0,5c0,1 0,2 0,4l0,1" id="svg_20" fill-opacity="null" stroke-opacity="null" stroke-width="1.5" stroke="#000" fill="none"/>
  <path d="m438.5,215.45313c2,0 2,1 2,4c0,3 0,5 0,6c0,1 0,2 1,4l0,1" id="svg_21" stroke-width="1.5" stroke="#000" fill="#ff5656"/>
 </g>
</svg>